<svg xmlns="http://www.w3.org/2000/svg" viewBox="-8 -8 112 76" width="112" height="76"><defs><pattern id="bubble-dots-cut-dots" width="6" height="6" patternUnits="userSpaceOnUse"><rect width="6" height="6" fill="#ffffff"/><circle cx="3" cy="3" r="1.1" fill="#23201c"/></pattern></defs><g id="스티커/라벨/말풍선/도트 외곽선"><g id="외곽선"><path d="M10 6H86a6 6 0 0 1 6 6V36a6 6 0 0 1-6 6H36L22 54 25 42H10a6 6 0 0 1-6-6V12a6 6 0 0 1 6-6Z" fill="#e3dfd5" stroke="#e3dfd5" stroke-width="10.6" stroke-linecap="round" stroke-linejoin="round"/><path d="M10 6H86a6 6 0 0 1 6 6V36a6 6 0 0 1-6 6H36L22 54 25 42H10a6 6 0 0 1-6-6V12a6 6 0 0 1 6-6Z" fill="#ffffff" stroke="#ffffff" stroke-width="9" stroke-linecap="round" stroke-linejoin="round"/></g><g id="칠"><path d="M10 6H86a6 6 0 0 1 6 6V36a6 6 0 0 1-6 6H36L22 54 25 42H10a6 6 0 0 1-6-6V12a6 6 0 0 1 6-6Z" fill="url(#bubble-dots-cut-dots)" stroke="none"/></g><g id="먹선"><path stroke-width="1.8" d="M10 6H86a6 6 0 0 1 6 6V36a6 6 0 0 1-6 6H36L22 54 25 42H10a6 6 0 0 1-6-6V12a6 6 0 0 1 6-6Z" fill="none" stroke="#23201c" stroke-linecap="round" stroke-linejoin="round"/></g></g></svg>
