<svg xmlns="http://www.w3.org/2000/svg" viewBox="-8 -8 80 80" width="80" height="80"><defs><pattern id="leaf-dots-cut-dots" width="6" height="6" patternUnits="userSpaceOnUse"><rect width="6" height="6" fill="#ffffff"/><circle cx="3" cy="3" r="1.1" fill="#23201c"/></pattern></defs><g><path d="M32 60C32 44 33 30 38 12" fill="#e3dfd5" stroke="#e3dfd5" stroke-width="10.6" stroke-linecap="round" stroke-linejoin="round"/><path d="M33 38C20 38 12 30 11 22 22 21 31 27 33 38Z" fill="#e3dfd5" stroke="#e3dfd5" stroke-width="10.6" stroke-linecap="round" stroke-linejoin="round"/><path d="M35 28C44 29 52 22 53 12 43 12 36 19 35 28Z" fill="#e3dfd5" stroke="#e3dfd5" stroke-width="10.6" stroke-linecap="round" stroke-linejoin="round"/><path d="M32 50C24 51 18 46 16 40 24 39 30 43 32 50Z" fill="#e3dfd5" stroke="#e3dfd5" stroke-width="10.6" stroke-linecap="round" stroke-linejoin="round"/><path d="M32 60C32 44 33 30 38 12" fill="#ffffff" stroke="#ffffff" stroke-width="9" stroke-linecap="round" stroke-linejoin="round"/><path d="M33 38C20 38 12 30 11 22 22 21 31 27 33 38Z" fill="#ffffff" stroke="#ffffff" stroke-width="9" stroke-linecap="round" stroke-linejoin="round"/><path d="M35 28C44 29 52 22 53 12 43 12 36 19 35 28Z" fill="#ffffff" stroke="#ffffff" stroke-width="9" stroke-linecap="round" stroke-linejoin="round"/><path d="M32 50C24 51 18 46 16 40 24 39 30 43 32 50Z" fill="#ffffff" stroke="#ffffff" stroke-width="9" stroke-linecap="round" stroke-linejoin="round"/></g><path stroke-width="1.8" d="M32 60C32 44 33 30 38 12" fill="none" stroke="#23201c" stroke-linecap="round" stroke-linejoin="round"/><path stroke-width="1.8" d="M33 38C20 38 12 30 11 22 22 21 31 27 33 38Z" fill="url(#leaf-dots-cut-dots)" stroke="#23201c" stroke-linecap="round" stroke-linejoin="round"/><path stroke-width="1.8" d="M35 28C44 29 52 22 53 12 43 12 36 19 35 28Z" fill="url(#leaf-dots-cut-dots)" stroke="#23201c" stroke-linecap="round" stroke-linejoin="round"/><path stroke-width="1.8" d="M32 50C24 51 18 46 16 40 24 39 30 43 32 50Z" fill="#ffffff" stroke="#23201c" stroke-linecap="round" stroke-linejoin="round"/></svg>
