<svg xmlns="http://www.w3.org/2000/svg" viewBox="-8 -8 80 80" width="80" height="80"><defs><pattern id="plane-stripe-cut-stripe" width="6" height="6" patternUnits="userSpaceOnUse" patternTransform="rotate(45)"><rect width="6" height="6" fill="#ffffff"/><rect width="1.7" height="6" fill="#23201c"/></pattern></defs><g id="스티커/그림/종이비행기/줄무늬 외곽선"><g id="외곽선"><path d="M6 30 58 10 38 54 30 36Z" fill="#e3dfd5" stroke="#e3dfd5" stroke-width="10.6" stroke-linecap="round" stroke-linejoin="round"/><path d="M30 36 28 48 34 42Z" fill="#e3dfd5" stroke="#e3dfd5" stroke-width="10.6" stroke-linecap="round" stroke-linejoin="round"/><path d="M30 36 58 10" fill="#e3dfd5" stroke="#e3dfd5" stroke-width="10.6" stroke-linecap="round" stroke-linejoin="round"/><path d="M6 30 58 10 38 54 30 36Z" fill="#ffffff" stroke="#ffffff" stroke-width="9" stroke-linecap="round" stroke-linejoin="round"/><path d="M30 36 28 48 34 42Z" fill="#ffffff" stroke="#ffffff" stroke-width="9" stroke-linecap="round" stroke-linejoin="round"/><path d="M30 36 58 10" fill="#ffffff" stroke="#ffffff" stroke-width="9" stroke-linecap="round" stroke-linejoin="round"/></g><g id="칠"><path d="M6 30 58 10 38 54 30 36Z" fill="url(#plane-stripe-cut-stripe)" stroke="none"/><path d="M30 36 28 48 34 42Z" fill="#ffffff" stroke="none"/></g><g id="먹선"><path stroke-width="1.8" d="M6 30 58 10 38 54 30 36Z" fill="none" stroke="#23201c" stroke-linecap="round" stroke-linejoin="round"/><path stroke-width="1.8" d="M30 36 28 48 34 42Z" fill="none" stroke="#23201c" stroke-linecap="round" stroke-linejoin="round"/><path stroke-width="1.8" d="M30 36 58 10" fill="none" stroke="#23201c" stroke-linecap="round" stroke-linejoin="round"/></g></g></svg>
