<svg xmlns="http://www.w3.org/2000/svg" viewBox="-8 -8 112 72" width="112" height="72"><defs><pattern id="ticket-stripe-cut-stripe" width="6" height="6" patternUnits="userSpaceOnUse" patternTransform="rotate(45)"><rect width="6" height="6" fill="#ffffff"/><rect width="1.7" height="6" fill="#23201c"/></pattern></defs><g id="스티커/라벨/티켓/줄무늬 외곽선"><g id="외곽선"><path d="M6 6H90V20a8 8 0 0 0 0 16V50H6V36a8 8 0 0 0 0-16Z" fill="#e3dfd5" stroke="#e3dfd5" stroke-width="10.6" stroke-linecap="round" stroke-linejoin="round"/><path d="M70 10V46" fill="#e3dfd5" stroke="#e3dfd5" stroke-width="10.6" stroke-linecap="round" stroke-linejoin="round"/><path d="M6 6H90V20a8 8 0 0 0 0 16V50H6V36a8 8 0 0 0 0-16Z" fill="#ffffff" stroke="#ffffff" stroke-width="9" stroke-linecap="round" stroke-linejoin="round"/><path d="M70 10V46" fill="#ffffff" stroke="#ffffff" stroke-width="9" stroke-linecap="round" stroke-linejoin="round"/></g><g id="칠"><path d="M6 6H90V20a8 8 0 0 0 0 16V50H6V36a8 8 0 0 0 0-16Z" fill="url(#ticket-stripe-cut-stripe)" stroke="none"/></g><g id="먹선"><path stroke-width="1.8" d="M6 6H90V20a8 8 0 0 0 0 16V50H6V36a8 8 0 0 0 0-16Z" fill="none" stroke="#23201c" stroke-linecap="round" stroke-linejoin="round"/><path stroke-width="1.8" d="M70 10V46" stroke-dasharray="3 3.5" fill="none" stroke="#23201c" stroke-linecap="round" stroke-linejoin="round"/></g></g></svg>
