<svg xmlns="http://www.w3.org/2000/svg" viewBox="-8 -8 112 72" width="112" height="72"><defs><pattern id="ticket-grid-cut-grid" width="6" height="6" patternUnits="userSpaceOnUse"><rect width="6" height="6" fill="#ffffff"/><path d="M0 .5H6M.5 0V6" stroke="#c7c0b2" stroke-width=".9"/></pattern></defs><g><path d="M6 6H90V20a8 8 0 0 0 0 16V50H6V36a8 8 0 0 0 0-16Z" fill="#e3dfd5" stroke="#e3dfd5" stroke-width="10.6" stroke-linecap="round" stroke-linejoin="round"/><path d="M70 10V46" fill="#e3dfd5" stroke="#e3dfd5" stroke-width="10.6" stroke-linecap="round" stroke-linejoin="round"/><path d="M6 6H90V20a8 8 0 0 0 0 16V50H6V36a8 8 0 0 0 0-16Z" fill="#ffffff" stroke="#ffffff" stroke-width="9" stroke-linecap="round" stroke-linejoin="round"/><path d="M70 10V46" fill="#ffffff" stroke="#ffffff" stroke-width="9" stroke-linecap="round" stroke-linejoin="round"/></g><path stroke-width="1.8" d="M6 6H90V20a8 8 0 0 0 0 16V50H6V36a8 8 0 0 0 0-16Z" fill="url(#ticket-grid-cut-grid)" stroke="#23201c" stroke-linecap="round" stroke-linejoin="round"/><path stroke-width="1.8" d="M70 10V46" stroke-dasharray="3 3.5" fill="none" stroke="#23201c" stroke-linecap="round" stroke-linejoin="round"/></svg>
